<svg width="136" height="147" viewBox="0 0 136 147" fill="none" xmlns="http://www.w3.org/2000/svg">
<path d="M6.96511 24.5267L0 28.1304L0.189247 29.9712L25.6954 76.947C25.6954 76.947 46.821 62.4835 62.6966 63.2167C78.5736 63.9498 79.8189 58.774 84.8042 57.4333C89.7881 56.0941 104.543 55.2047 108.66 53.0396C112.777 50.8745 111.927 49.788 111.927 49.788L85.5135 7.4812L6.96379 24.5267H6.96511Z" fill="#51662B"/>
<path d="M7.44442 26.643L2.41016 28.7658L27.1169 73.8716C27.1169 73.8716 36.7884 66.2064 47.3347 64.0757C57.8809 61.9463 61.2067 62.6226 67.0403 62.3685C72.8738 62.1144 76.6204 60.9789 79.2117 58.7437C81.8029 56.5084 85.2438 55.3584 91.7219 54.6107C98.2 53.8629 106.765 53.9966 110.083 49.9629C104.166 41.8384 94.5447 29.356 94.5447 29.356L7.44574 26.6404L7.44442 26.643Z" fill="#38461E"/>
<path d="M9.44132 14.4346L5.62857 16.6142L4.62939 27.5588C4.62939 27.5588 25.35 63.0607 27.6528 70.2322C35.0215 65.0775 47.2498 53.5043 61.4527 58.7093C68.8082 61.4037 74.6233 58.663 77.2463 55.9063C79.8706 53.1483 87.2724 52.3132 91.5299 52.7711C95.7873 53.229 103.438 53.3217 108.231 50.1402C108.701 47.545 107.695 44.0962 107.695 44.0962L86.2574 15.1042L9.43999 14.4346H9.44132Z" fill="#F4D0AA"/>
<path d="M86.2587 15.1055L9.4413 14.4346L5.62988 16.6129L30.3856 60.9366C30.3856 60.9366 45.5201 44.3635 67.6687 52.4522C75.0706 46.7748 83.2241 43.7494 92.9777 44.4628C100.509 45.0133 104.56 45.7121 107.559 43.9056L86.26 15.1042L86.2587 15.1055Z" fill="#EEB67B"/>
<path d="M49.9824 11.7188C49.9824 11.7188 42.3 0.541275 23.0139 7.25097C9.89493 11.8154 6.61816 13.1547 6.61816 13.1547L31.0205 58.6933C31.0205 58.6933 37.0315 52.5447 43.9926 50.4921C52.1184 48.0967 61.0937 47.9697 67.8272 51.8817C73.8144 46.2373 86.2081 41.9985 95.2047 43.5243C104.203 45.0502 108.345 41.17 108.345 41.17L82.3676 0C82.3676 0 79.1583 2.81225 74.4324 2.22465C69.7065 1.63574 52.8184 1.11828 49.9837 11.7201L49.9824 11.7188Z" fill="#FAE9D7"/>
<path d="M50.3335 13.5081L67.477 50.5689C67.477 50.5689 63.0078 32.2277 50.3335 13.5081Z" fill="#EEB67B"/>
<path d="M14.6343 16.4857C14.3696 16.3349 15.8955 13.7317 20.624 11.8591C23.2153 10.8215 26.2803 10.0989 29.8628 9.76148H29.8747C33.4717 9.41871 36.7246 9.54312 39.5157 9.93352C44.2787 10.5873 47.0803 12.2138 46.9387 12.4268C46.7971 12.6399 43.9836 11.5071 39.3357 11.0915C36.6174 10.8559 33.526 10.8189 30.056 11.1471H30.0441C26.5807 11.4806 23.697 12.0748 21.1719 12.9363C16.847 14.4318 14.8751 16.6234 14.6356 16.4857H14.6343Z" fill="#EEB67B"/>
<path d="M18.0249 21.0833C17.8833 20.9338 19.0228 19.8075 21.434 18.6734C23.9697 17.481 27.4423 16.5414 31.8162 16.3111L31.8665 16.3084C35.8976 16.0927 39.9764 16.4289 42.5041 16.6896C45.1985 16.9675 46.8502 17.2256 46.8382 17.4175C46.8263 17.6094 45.1363 17.6993 42.4286 17.6742C40.1153 17.6517 35.6078 17.4995 31.971 17.6993L31.9221 17.7033C27.6977 17.9495 24.5004 18.6469 21.9303 19.5534C19.523 20.4031 18.1665 21.2329 18.0249 21.0833Z" fill="#EEB67B"/>
<path d="M22.4133 27.0228C22.1486 26.7118 26.9393 23.3265 34.2379 22.15C41.5366 20.9735 47.6388 21.88 47.6137 22.2652C47.5898 22.6489 41.5458 22.4213 34.537 23.5237C27.5283 24.6274 22.678 27.3325 22.4119 27.0215L22.4133 27.0228Z" fill="#EEB67B"/>
<path d="M26.7183 34.2538C26.5568 34.1215 27.4448 32.9542 29.5477 31.6983C31.7485 30.3841 34.9194 29.242 38.9783 28.8291L39.0379 28.8238C42.8281 28.4374 46.5522 28.6492 48.9595 28.8675C51.4753 29.0951 53.0105 29.3545 52.9986 29.5478C52.9866 29.7396 51.4171 29.8296 48.9053 29.8548C46.6105 29.8773 42.7302 29.8442 39.2338 30.2095L39.1769 30.2147C35.3125 30.6316 32.3944 31.5064 30.1472 32.5294C28.0258 33.4955 26.881 34.3875 26.7183 34.2538Z" fill="#EEB67B"/>
<path d="M30.8792 40.3665C30.6463 40.0899 34.6853 36.8264 41.5737 35.7134L41.6001 35.7095C45.0397 35.147 48.0107 35.376 50.2195 35.9225C52.3462 36.4492 53.4685 37.1612 53.3732 37.3346C53.2779 37.5093 52.0246 37.1321 49.9747 36.8794C47.8162 36.6133 45.1535 36.5657 41.9006 37.0792L41.8754 37.0832C35.6197 38.0956 31.1412 40.6775 30.8779 40.3665H30.8792Z" fill="#EEB67B"/>
<path d="M31.754 47.0684C31.619 46.9149 32.7214 45.9104 34.9593 44.8411C37.3573 43.6937 40.4276 42.7806 44.4362 42.1453C44.5037 42.1348 44.5725 42.1242 44.64 42.1136C47.488 41.661 50.021 41.5379 52.2933 41.6954C56.2358 41.9495 58.3612 43.208 58.1812 43.478C58.0409 43.6871 55.8506 42.8812 52.2351 42.852C50.0501 42.8454 47.7143 43.0426 44.9391 43.4846C44.9391 43.4846 44.738 43.5177 44.7393 43.5177C40.7241 44.1794 37.982 44.8385 35.4609 45.7252C33.2005 46.5205 31.889 47.2233 31.754 47.0684Z" fill="#EEB67B"/>
<path d="M55.1755 12.2524C54.9903 12.1425 55.7314 10.7225 57.8594 9.10396C60.0549 7.43249 63.5144 5.81661 68.0285 5.30048C68.0497 5.29783 68.0722 5.29519 68.0947 5.29254C76.7617 4.30395 83.5561 6.89784 83.4237 7.26574C83.2914 7.63365 76.5036 5.72662 68.3117 6.6755C68.2905 6.67683 68.2707 6.6808 68.2495 6.68212C64.0437 7.18502 60.8186 8.49519 58.5727 9.86492C56.4063 11.1857 55.3608 12.3622 55.1755 12.2524Z" fill="#EEB67B"/>
<path d="M59.2148 16.8802C59.0732 16.773 60.2881 14.731 64.1154 13.5187C66.0303 12.9113 68.2007 12.6029 70.6888 12.5487C70.7483 12.5473 70.8079 12.546 70.8674 12.546C74.2765 12.4865 77.8775 12.9245 79.9632 13.2024C82.2554 13.5081 83.6635 13.7464 83.6516 13.9382C83.6396 14.1301 82.1852 14.2387 79.8587 14.1844C77.5321 14.1301 74.3533 13.8721 70.9031 13.9382C70.8462 13.9396 70.7893 13.9396 70.7324 13.9409C68.3344 13.9978 66.3639 14.2003 64.5547 14.6476C61.192 15.4787 59.4371 17.0456 59.2148 16.8789V16.8802Z" fill="#EEB67B"/>
<path d="M63.2404 21.692C63.116 21.5319 64.1059 20.6823 66.1255 19.9121C68.2628 19.0955 71.0896 18.5688 74.6032 18.59H74.6403C77.3652 18.5979 81.5697 18.946 83.0717 19.0479C85.1918 19.1921 86.5311 19.2464 86.551 19.4383C86.5708 19.6288 85.2514 19.924 83.0611 20.0325C80.8802 20.141 77.8694 19.9954 74.635 19.9848H74.5992C71.1835 19.9888 68.6783 20.2972 66.5212 20.8279C64.536 21.3162 63.3661 21.8522 63.2417 21.692H63.2404Z" fill="#EEB67B"/>
<path d="M65.3409 29.5611C65.2165 29.401 66.25 28.5262 68.3238 27.6607C70.485 26.7581 73.4454 26.0355 77.0888 25.9363H77.0941C80.4383 25.8423 83.8686 26.1996 85.9371 26.455C88.1684 26.7303 89.5381 26.9698 89.5262 27.1631C89.5143 27.355 88.1048 27.4635 85.8471 27.4397C83.5894 27.4158 80.5032 27.2292 77.1483 27.3298H77.143C73.6559 27.4383 70.9495 27.9426 68.7592 28.5672C66.692 29.1574 65.4639 29.7212 65.3395 29.5611H65.3409Z" fill="#EEB67B"/>
<path d="M69.8045 37.7239C69.3479 37.671 69.6787 35.5986 72.8642 33.9138C74.7659 32.8326 77.0846 31.979 79.9365 31.3147L79.9947 31.3014C82.8824 30.6265 85.4512 30.3499 87.7129 30.3737C88.9529 30.3856 89.9534 30.4955 90.811 30.6993C92.2773 31.0275 92.8146 31.6336 92.7008 31.7501C92.5936 31.8599 91.9491 31.5701 90.6482 31.4589C89.8171 31.3994 88.9542 31.4086 87.7552 31.4907C85.5808 31.6429 83.2411 31.9923 80.4235 32.6473L80.3666 32.6606C77.5808 33.317 75.4501 33.9972 73.5484 34.8813C70.8407 36.2483 70.0744 37.7544 69.8045 37.7239Z" fill="#EEB67B"/>
<path d="M70.7496 43.3193C70.5961 43.1432 71.9976 41.7497 74.9462 40.2714C77.1113 39.1863 79.9129 38.0613 83.2374 37.221C91.1289 35.224 97.6268 36.0326 97.6017 36.4177C97.5778 36.7988 91.1461 36.6652 83.6979 38.551C80.4807 39.3662 77.7598 40.3376 75.5378 41.2296C72.6567 42.3796 70.9032 43.494 70.7483 43.3179L70.7496 43.3193Z" fill="#EEB67B"/>
<path d="M92.9783 73.685C92.9783 73.685 95.0007 75.9781 93.6109 78.014C92.2223 80.0492 89.6033 81.2256 89.6033 81.2256L86.04 78.6691L88.9045 75.5039C88.9045 75.5039 90.4049 72.5904 92.9783 73.685Z" fill="#E9DAC7"/>
<path d="M131.932 93.0232L93.6043 107.151L80.4544 84.1752L94.7763 78.9485L131.932 93.0232Z" fill="#E9DAC7"/>
<path d="M130.588 86.7584L134.467 88.2054L132.008 92.8863L94.7015 78.7076L119.266 110.613L112.741 113.811L88.1144 79.634C91.831 78.7714 93.0489 77.2237 91.8778 73.7348C91.8778 73.7348 90.6561 72.843 95.6654 73.8866C100.676 74.9303 130.589 86.7596 130.589 86.7596L130.588 86.7584Z" fill="#FEF4E6"/>
<path d="M134.437 85.5876C134.437 85.5876 130.483 85.3754 123.997 82.9522C117.512 80.5291 95.1607 72.8945 92.0388 73.0537C88.9171 73.2118 61.7499 83.9979 59.9352 87.1172C58.1203 90.2374 58.9636 91.5837 61.3214 95.8453C63.6791 100.107 81.3713 127.12 81.3713 127.12C82.2204 128.128 90.2592 125.163 98.6655 122.328C107.458 119.362 116.58 116.458 114.874 114.658C114.874 114.658 89.8968 80.6222 89.6436 78.7777C89.3892 76.933 90.3563 74.5602 92.7489 74.4911C95.1406 74.4217 130.603 87.2696 130.603 87.2696C130.603 87.2696 136.438 87.6061 134.438 85.5889L134.437 85.5876Z" fill="#51662B"/>
<path d="M91.3528 73.447C85.841 74.7451 49.9751 90.1018 48.2652 93.0435C46.4451 96.1752 47.2908 97.5265 49.6555 101.803C52.02 106.08 69.7628 133.193 69.7628 133.193C70.6143 134.204 90.3919 125.604 98.8233 122.759C104.828 120.732 110.984 118.733 113.761 117.093C109.893 111.643 88.5141 81.4975 88.0615 80.3248C87.5659 79.0403 86.9258 77.2764 88.8088 75.1279C89.3847 74.4701 90.3256 73.9103 91.3519 73.4457L91.3528 73.447Z" fill="#3A481F"/>
<path d="M86.2155 78.7458C86.2155 78.7458 56.0877 90.0264 49.8847 94.885C55.8994 92.4803 86.2155 78.7458 86.2155 78.7458Z" fill="#2C3617"/>
<path d="M93.0715 78.3552L117.272 110.07C117.272 110.07 100.575 91.0473 93.0715 78.3552Z" fill="#E9DAC7"/>
<path d="M91.5645 79.6958L115.765 111.41C115.765 111.41 99.0675 92.3879 91.5645 79.6958Z" fill="#E9DAC7"/>
<path d="M93.8938 76.9192L130.714 89.9477C130.714 89.9477 112.382 81.7422 93.8938 76.9192Z" fill="#E9DAC7"/>
<path d="M131.499 88.1749L93.5852 75.6035C93.5852 75.6035 113.793 80.3754 131.499 88.1749Z" fill="#E9DAC7"/>
<path d="M88.0914 90.1546C88.0914 90.1546 85.5547 90.1553 84.132 89.0747C82.0769 90.0511 77.0306 92.1972 77.0306 92.1972C77.0306 92.1972 78.1919 93.6636 76.038 94.9659C77.9924 98.525 88.2099 114.041 88.2099 114.041C88.2099 114.041 91.6805 113.848 92.7473 115.45C95.8789 114.417 101.835 112.398 101.835 112.398C101.835 112.398 100.608 110.845 102.289 110.163C100.375 107.256 88.0904 90.1543 88.0904 90.1543L88.0914 90.1546Z" fill="#E9DAC7"/>
</svg>
