<svg width="108" height="110" viewBox="0 0 108 110" fill="none" xmlns="http://www.w3.org/2000/svg">
<path d="M46.8247 22.2654C55.5648 20.4619 64.1113 26.0845 65.9148 34.8246C67.7183 43.5647 62.0956 52.1112 53.3555 53.9147C44.6174 55.7178 36.0689 50.0955 34.2654 41.3554C32.4619 32.6154 38.0866 24.0684 46.8247 22.2654Z" fill="#FFCC75"/>
<path d="M55.8869 35.1256C57.3483 35.6099 57.7374 37.4947 56.5871 38.5182L49.8041 44.5535C48.6539 45.5769 46.8271 44.9714 46.5159 43.4635L44.6812 34.572C44.3701 33.0643 45.8078 31.7851 47.2691 32.2694L55.8869 35.1256Z" fill="white"/>
<path d="M46.8247 22.2654C55.5648 20.4619 64.1113 26.0845 65.9148 34.8246C67.7183 43.5647 62.0956 52.1112 53.3555 53.9147C44.6174 55.7178 36.0689 50.0955 34.2654 41.3554C32.4619 32.6154 38.0866 24.0684 46.8247 22.2654Z" fill="white"/>
<path d="M55.8869 35.1256C57.3483 35.6099 57.7374 37.4947 56.5871 38.5182L49.8041 44.5535C48.6539 45.5769 46.8271 44.9714 46.5159 43.4635L44.6812 34.572C44.3701 33.0643 45.8078 31.7851 47.2691 32.2694L55.8869 35.1256Z" fill="#3182BD"/>
<path d="M24.1929 71.4082L30.2486 88.3335L31.3873 106.273C26.0792 107.369 20.8883 103.952 19.793 98.6435L16.5654 83.002C15.4701 77.6939 18.8848 72.5035 24.1929 71.4082Z" fill="#3182BD"/>
<path d="M96.4178 66.5244L99.6454 82.1659C100.741 87.474 97.3241 92.6673 92.016 93.7626L85.9602 76.8374L84.8216 58.8975C90.1297 57.8021 95.3225 61.2163 96.4178 66.5244Z" fill="#3182BD"/>
<path d="M38.9444 68.3641L46.1844 103.451C46.6029 105.479 45.2858 107.481 43.2575 107.899L35.8818 109.421C33.8534 109.84 31.8515 108.523 31.4329 106.495L31.3873 106.273L24.1929 71.4081C23.7743 69.3798 25.0914 67.3778 27.1198 66.9592L34.4955 65.4373C36.5238 65.0187 38.5258 66.3358 38.9444 68.3641Z" fill="#6BAED6"/>
<path d="M92.0159 93.7627L92.0616 93.984C92.4801 96.0123 91.163 98.0143 89.1347 98.4329L81.759 99.9548C79.7306 100.373 77.7287 99.0563 77.3101 97.028L70.0701 61.9415C69.6515 59.9132 70.9686 57.9112 72.997 57.4927L80.3727 55.9707C82.401 55.5522 84.403 56.8693 84.8216 58.8976L92.0159 93.7627Z" fill="#6BAED6"/>
<path d="M92.1918 16.4183L87.0701 21.8455C75.6915 11.149 59.4548 5.97655 42.997 9.37259C26.5393 12.7686 13.6787 23.9453 7.46122 38.2727L0.612042 35.3156C1.91568 32.3168 3.48816 29.4034 5.32234 26.6154C13.7044 13.8714 26.55 5.15607 41.4908 2.07306C56.4316 -1.00996 71.6778 1.9087 84.4223 10.2933C87.2102 12.1274 89.8051 14.1809 92.1918 16.4183Z" fill="#6BAED6"/>
<path d="M105.787 74.6681C104.769 74.8782 103.773 74.223 103.563 73.2046L100.83 59.9615C100.8 59.8172 100.788 59.6698 100.792 59.5225C100.908 55.7954 100.581 52.0365 99.8207 48.3501C94.4971 22.5512 69.1771 5.8933 43.3783 11.2169C17.5794 16.5404 0.921498 41.8604 6.24507 67.6593C7.00575 71.3457 8.19334 74.9271 9.77522 78.3038C9.83787 78.4372 9.88451 78.5775 9.91429 78.7219L12.647 91.965C12.8571 92.9834 12.2019 93.9793 11.1836 94.1895C10.1652 94.3996 9.16926 93.7444 8.95913 92.726L6.27086 79.6982C4.6114 76.1145 3.36217 72.3213 2.55719 68.4203C-3.18598 40.5879 14.7849 13.2722 42.6173 7.52899C70.4496 1.78581 97.7654 19.7567 103.509 47.5891C104.314 51.4901 104.668 55.4677 104.563 59.4159L107.251 72.4437C107.461 73.462 106.806 74.458 105.787 74.6681Z" fill="#08519C"/>
</svg>
