<svg width="128" height="128" viewBox="0 0 128 128" fill="none" xmlns="http://www.w3.org/2000/svg">
<path d="M87.328 62.6719C87.328 68.3115 85.0877 73.7201 81.1 77.7079C77.1122 81.6956 71.7036 83.9359 66.064 83.9359H58.752C53.1125 83.9359 47.7039 81.6956 43.7161 77.7079C39.7283 73.7201 37.488 68.3115 37.488 62.6719V31.2559C37.487 28.4632 38.0363 25.6977 39.1045 23.1173C40.1728 20.537 41.739 18.1924 43.7138 16.2177C45.6885 14.2429 48.0331 12.6767 50.6134 11.6084C53.1938 10.5402 55.9593 9.99089 58.752 9.99194H66.064C71.7036 9.99194 77.1122 12.2323 81.1 16.22C85.0877 20.2078 87.328 25.6164 87.328 31.2559V62.6719Z" fill="#F4B8DA"/>
<path d="M90.7199 51.3279V64.3919C90.7199 77.4479 79.7599 88.0319 66.2319 88.0319H57.8079C44.2799 88.0319 33.3119 77.4479 33.3119 64.3919V51.3279H29.3359V66.8159C29.3359 81.6799 41.8239 93.7279 57.2159 93.7279H66.8079C82.2159 93.7279 94.6959 81.6799 94.6959 66.8159V51.3279H90.7199Z" fill="#E68BBE"/>
<path d="M56.6479 89.8879H68.1679V110.256H56.6479V89.8879Z" fill="#E68BBE"/>
<path d="M91.8319 118V116.472C91.8319 111.36 86.9599 107.216 80.9279 107.216H43.8879C37.8719 107.216 32.9839 111.368 32.9839 116.472V118H91.8319Z" fill="#E68BBE"/>
<path d="M65.1119 28.136H86.9199V33.28H65.1119V28.136ZM37.3679 28.136H59.1759V33.28H37.3679V28.136ZM65.1119 37.192H86.9199V42.336H65.1119V37.192ZM37.3679 37.192H59.1759V42.336H37.3679V37.192ZM65.1119 46.96H86.9199V52.112H65.1119V46.96ZM37.3679 46.96H59.1759V52.112H37.3679V46.96ZM65.1119 56.032H86.9199V61.168H65.1119V56.032ZM37.3679 56.032H59.1759V61.168H37.3679V56.032Z" fill="#E68BBE"/>
</svg>
