<svg width="273" height="165" viewBox="0 0 273 165" fill="none" xmlns="http://www.w3.org/2000/svg">
<g clip-path="url(#clip0_2289_4980)">
<path d="M6.46706 47.7471L40.5221 35.3521C44.0914 34.053 48.0373 35.893 49.3364 39.4622L56.9811 60.4657C58.2802 64.035 56.4401 67.9809 52.8709 69.28L51.371 69.826L55.7224 77.7946L42.4429 73.0755L18.8158 81.6751C15.2466 82.9742 11.3006 81.1341 10.0015 77.5649L2.35689 56.5614C1.0578 52.9922 2.89783 49.0462 6.46706 47.7471Z" fill="#5FBEFF"/>
<path d="M22.5624 70.3843L16.5926 53.9824L20.0604 52.7203L22.5236 59.4876L29.5632 56.9254L27.1001 50.158L30.5599 48.8988L36.5297 65.3007L33.0699 66.5599L30.6039 59.7845L23.5642 62.3468L26.0302 69.1222L22.5624 70.3843ZM39.3247 64.2834L34.8474 51.9819L38.2591 50.7402L42.7365 63.0416L39.3247 64.2834ZM35.9841 49.7724C35.4769 49.957 34.9805 49.9472 34.495 49.743C34.0129 49.5315 33.6854 49.1881 33.5125 48.7129C33.3415 48.2431 33.3736 47.7749 33.6089 47.3083C33.8476 46.8345 34.2205 46.5052 34.7278 46.3206C35.235 46.136 35.7296 46.1495 36.2117 46.361C36.6972 46.5652 37.0255 46.9022 37.1965 47.3721C37.3694 47.8473 37.3366 48.3218 37.0979 48.7956C36.8626 49.2622 36.4913 49.5878 35.9841 49.7724Z" fill="white"/>
</g>
<g clip-path="url(#clip1_2289_4980)">
<path d="M128.496 140.102L137.76 140.123L137.751 144.094C137.746 146.08 136.129 147.69 134.143 147.686L132.079 147.681C130.093 147.677 128.483 146.059 128.487 144.073L128.496 140.102Z" fill="#1E608C"/>
<path d="M133.296 63.8127L78.9629 63.6895L78.7766 145.807L133.11 145.93L133.296 63.8127Z" fill="#1E608C"/>
<path d="M133.304 62.428L78.9707 62.3047L78.7844 144.422L133.117 144.545L133.304 62.428Z" fill="#329EE8"/>
<path d="M187.63 63.9354L133.297 63.8121L133.111 145.929L187.444 146.053L187.63 63.9354Z" fill="#1E608C"/>
<path d="M187.632 62.5538L133.299 62.4305L133.113 144.548L187.446 144.671L187.632 62.5538Z" fill="#329EE8"/>
<path d="M135.863 67.0261L130.721 67.0144L130.542 145.918L135.684 145.929L135.863 67.0261Z" fill="#1E608C"/>
<path d="M82.8345 142.183L82.8319 144.068C82.8319 144.068 111.323 131.412 133.113 140.063L125.834 130.207C125.834 130.207 98.1232 128.218 82.8312 142.193L82.8345 142.183Z" fill="#FAFDFF"/>
<path d="M133.11 140.057C117.334 132.819 98.6471 135.012 82.8409 142.18C82.899 117.501 82.9571 92.8219 83.0088 68.1457C98.8182 60.9833 117.508 58.7814 133.277 66.0221C133.219 90.7014 133.161 115.381 133.11 140.057Z" fill="#C1E6FF"/>
<path d="M183.379 142.415L183.376 144.299C183.376 144.299 154.951 131.51 133.113 140.063L140.438 130.236C140.438 130.236 168.158 128.382 183.388 142.418L183.379 142.415Z" fill="#FAFDFF"/>
<path d="M183.378 142.415C165.979 135.564 148.458 133.548 133.118 140.06C133.176 115.381 133.234 90.7015 133.286 66.0254C149.096 58.863 167.77 61.1426 183.546 68.3802C183.488 93.0594 183.43 117.739 183.378 142.415Z" fill="#C1E6FF"/>
<path d="M133.107 140.702C116.832 133.159 97.5548 133.113 81.2441 140.583C81.3062 114.853 81.3651 89.1166 81.4208 63.3895C97.7316 55.919 117.009 55.9654 133.284 63.5081C133.222 89.2383 133.163 114.975 133.107 140.702Z" fill="#F3F3F3"/>
<path d="M184.986 140.821C168.711 133.278 149.434 133.232 133.123 140.702C133.185 114.972 133.244 89.2354 133.3 63.5083C149.61 56.0378 168.888 56.0842 185.163 63.6269C185.101 89.3571 185.042 115.094 184.986 140.821Z" fill="#F3F3F3"/>
<path d="M133.3 63.5083L133.12 140.696" stroke="#C1E6FF" stroke-width="1.33" stroke-miterlimit="10"/>
<g opacity="0.47">
<path d="M178.769 71.8469C165.953 66.9321 151.784 66.8499 138.927 71.6265L138.925 73.2013C151.763 68.2903 165.984 68.3635 178.772 73.4186L178.775 71.8438L178.769 71.8469Z" fill="#277CB5"/>
<path d="M178.751 82.2188C165.936 77.3041 151.766 77.2218 138.91 81.9984L138.907 83.5732C151.746 78.6623 165.967 78.7355 178.755 83.7905L178.758 82.2157L178.751 82.2188Z" fill="#277CB5"/>
<path d="M178.722 92.5876C165.907 87.6728 151.737 87.5906 138.881 92.3672L138.878 93.942C151.717 89.0311 165.937 89.1042 178.726 94.1593L178.728 92.5845L178.722 92.5876Z" fill="#277CB5"/>
<path d="M178.697 102.963C165.881 98.048 151.712 97.9657 138.855 102.742L138.852 104.317C151.691 99.4062 165.912 99.4793 178.7 104.534L178.703 102.96L178.697 102.963Z" fill="#277CB5"/>
<path d="M178.677 113.335C165.862 108.42 151.692 108.338 138.836 113.114L138.833 114.689C151.672 109.778 165.892 109.851 178.681 114.906L178.683 113.332L178.677 113.335Z" fill="#277CB5"/>
<path d="M178.648 123.703C165.832 118.789 151.663 118.706 138.806 123.483L138.804 125.058C151.642 120.147 165.863 120.22 178.651 125.275L178.654 123.7L178.648 123.703Z" fill="#277CB5"/>
</g>
<g opacity="0.47">
<path d="M127.257 71.7318C114.442 66.817 100.272 66.7348 87.4157 71.5113L87.4129 73.0862C100.252 68.1752 114.472 68.2484 127.261 73.3035L127.264 71.7287L127.257 71.7318Z" fill="#277CB5"/>
<path d="M127.236 82.0973C114.42 77.1825 100.251 77.1002 87.3942 81.8768L87.3914 83.4516C100.23 78.5407 114.451 78.6139 127.239 83.6689L127.242 82.0941L127.236 82.0973Z" fill="#277CB5"/>
<path d="M127.21 92.4724C114.395 87.5576 100.225 87.4754 87.3688 92.2519L87.366 93.8268C100.205 88.9158 114.425 88.989 127.214 94.0441L127.217 92.4693L127.21 92.4724Z" fill="#277CB5"/>
<path d="M127.191 102.844C114.375 97.9297 100.206 97.8474 87.3493 102.624L87.3465 104.199C100.185 99.2879 114.406 99.3611 127.194 104.416L127.197 102.841L127.191 102.844Z" fill="#277CB5"/>
<path d="M127.161 113.213C114.346 108.298 100.177 108.216 87.32 112.993L87.3172 114.567C100.156 109.657 114.377 109.73 127.165 114.785L127.168 113.21L127.161 113.213Z" fill="#277CB5"/>
<path d="M127.142 123.585C114.327 118.67 100.157 118.588 87.3004 123.365L87.2977 124.939C100.136 120.029 114.357 120.102 127.146 125.157L127.148 123.582L127.142 123.585Z" fill="#277CB5"/>
</g>
<path d="M84.3798 40.3937L149.236 74.9221L153.543 66.8332L88.6862 32.3048L84.3798 40.3937Z" fill="#FFC669"/>
<path d="M88.6814 32.3096L84.375 40.3986L90.5599 43.6913L94.8663 35.6023L88.6814 32.3096Z" fill="#C1E6FF"/>
<path d="M91.1209 33.6086L86.8145 41.6975L88.1258 42.3957L92.4322 34.3067L91.1209 33.6086Z" fill="white"/>
<path d="M84.3789 40.3956L81.0374 38.6167C79.3667 37.7272 78.7328 35.65 79.6223 33.9793L80.7064 31.9429C81.5959 30.2721 83.6731 29.6383 85.3438 30.5277L88.6853 32.3067L84.3789 40.3956Z" fill="#1E608C"/>
<path d="M149.238 74.9257L160.719 75.8503L153.541 66.8353L149.238 74.9257Z" fill="#FFC1A0"/>
<path d="M156.352 75.5006L160.718 75.8504L157.989 72.4214L156.352 75.5006Z" fill="#1E608C"/>
</g>
<path d="M183.181 27.3057L172.327 44.0972L218.122 79.1084L230.392 60.1206L183.181 27.3057Z" fill="#277CB5"/>
<path d="M188.78 70.152C176.044 60.5934 168.481 49.1639 171.888 44.6235C175.296 40.0831 188.383 44.1512 201.12 53.7098C213.857 63.2684 221.419 74.6979 218.012 79.2383C214.604 83.7787 201.517 79.7106 188.78 70.152Z" fill="#277CB5"/>
<path d="M248.314 66.1982L204.771 57.407L170.404 14.2875L171.181 12.6266L213.148 23.8715L249.084 64.5375L248.314 66.1982Z" fill="#277CB5"/>
<path d="M249.084 64.5375L205.549 55.7526L171.181 12.6266L213.925 22.2107L249.084 64.5375Z" fill="#5FBEFF"/>
<path d="M211.587 34.4008L231.901 61.4718L224.588 81.5548L219.493 95.5482" stroke="#FFC669" stroke-width="1.79" stroke-linecap="round" stroke-linejoin="round"/>
<path d="M228.005 78.4615L224.174 76.9498C223.647 76.7429 223.383 76.1421 223.595 75.6183C223.802 75.0917 224.403 74.8273 224.927 75.0399L228.758 76.5516C229.285 76.7585 229.549 77.3593 229.337 77.8831C229.13 78.4097 228.529 78.6741 228.005 78.4615Z" fill="#FFC669"/>
<path d="M217.149 95.9495L221.364 97.5138L228.349 77.973L224.14 76.4115L217.149 95.9495Z" fill="#FFC669"/>
<defs>
<clipPath id="clip0_2289_4980">
<rect width="50" height="45.0871" fill="white" transform="matrix(-0.939693 0.34202 0.34202 0.939693 46.9844 33)"/>
</clipPath>
<clipPath id="clip1_2289_4980">
<rect width="134.329" height="150" fill="white" transform="translate(34 54) rotate(-26)"/>
</clipPath>
</defs>
</svg>
