<svg width="562" height="112" viewBox="0 0 562 112" fill="none" xmlns="http://www.w3.org/2000/svg">
<g clip-path="url(#clip0_2206_6403)">
<path d="M41.3008 33.1601C43.3408 32.6801 45.3508 32.2401 47.3208 31.8201" stroke="#FFC669" stroke-width="1.03" stroke-linecap="round" stroke-linejoin="round"/>
<path d="M59.5801 29.4801C162.22 12.3601 152.44 79.7101 219.71 101.88C283.47 122.9 328.79 106.94 366.84 48.9501C388.27 16.2801 421.46 -1.55993 455.89 19.1401C460.49 21.9101 465.28 25.1301 470.27 28.8801C530.07 73.8401 595.86 8.76007 540.08 -39.0499" stroke="#FFC669" stroke-width="1.03" stroke-linecap="round" stroke-linejoin="round" stroke-dasharray="12.49 12.49"/>
<path d="M46.54 40.3499L56.12 12.5699L0 36.1899L46.54 40.3499Z" fill="#329EE8"/>
<path d="M0 36.19L82.59 65.14L66.35 31.33L0 36.19Z" fill="#A3DAFF"/>
</g>
<defs>
<clipPath id="clip0_2206_6403">
<rect width="561.7" height="158.25" fill="white" transform="translate(0 -47)"/>
</clipPath>
</defs>
</svg>
