<svg width="111" height="111" viewBox="0 0 111 111" fill="none" xmlns="http://www.w3.org/2000/svg">
<path d="M35.7281 95.3907C37.4625 97.2985 49.4297 97.125 51.5109 95.7375C55.8468 93.136 86.025 56.8875 59.8359 46.3078C39.8906 38.1563 35.5547 56.5407 33.4734 58.1016C29.4843 61.2235 32.4328 91.7485 35.7281 95.3907Z" fill="#E6B796"/>
<path d="M99.9 94.1766C69.7219 94.3501 84.464 98.686 60.3562 98.686C50.8172 98.686 42.6656 92.4423 42.6656 83.7704V83.597C57.5812 73.711 32.6062 78.0469 36.4219 54.6329C37.6359 46.8282 45.9609 46.3079 56.8875 45.2673C66.0797 44.4001 97.125 56.1938 97.125 56.1938C108.225 60.1829 112.387 94.1766 99.9 94.1766Z" fill="#FFF2E3"/>
<path d="M34.861 40.2375C39.7173 36.9422 62.611 45.7875 62.611 45.7875L48.5626 81.1687C48.5626 81.1687 -1.04054 79.7812 15.0891 66.2531C28.6173 54.9797 28.097 44.9203 34.861 40.2375Z" fill="#FFF2E3"/>
<path d="M13.5281 67.8142C9.71245 77.3533 44.5734 78.9142 49.2562 79.0876L48.389 81.1689C48.389 81.1689 2.60151 79.7814 13.5281 67.8142Z" fill="#E6B796"/>
<path d="M47.8687 60.8767C53.7656 69.8955 56.3671 71.8033 56.3671 71.8033C56.3671 71.8033 50.4703 70.4158 46.4812 64.5189L47.8687 60.8767Z" fill="#E6B796"/>
<path d="M47.5218 58.9688C50.1233 58.9688 47.5218 71.6297 50.4702 75.0984C49.7765 77.3531 45.2671 75.9656 45.2671 75.9656C45.2671 75.9656 46.6546 60.3562 46.4812 59.4891L47.5218 58.9688Z" fill="#E6B796"/>
<path d="M33.9937 70.2423L36.5952 72.8438C36.5952 72.8438 60.3561 50.9907 66.9468 46.6548L59.1421 44.9204L33.9937 70.2423Z" fill="#E6B796"/>
<path d="M14.7422 77.1797L22.3734 84.6375L82.5562 24.8016L74.925 17.3438L14.7422 77.1797Z" fill="#F68E59"/>
<path d="M76.1389 18.7313L81.1686 23.5875L87.7592 17.1703L82.7295 12.1406L76.1389 18.7313Z" fill="#9A251E"/>
<path d="M65.5593 24.4546L75.2718 33.9937L77.0062 32.4327L67.2937 22.7202L65.5593 24.4546Z" fill="#9A251E"/>
<path d="M49.95 37.2892L51.3375 38.5032L67.2937 22.7204L65.9062 21.5063L49.95 37.2892Z" fill="#9A251E"/>
<path d="M22.3733 84.6375L5.37646 94.0031L14.7421 77.1797L22.3733 84.6375Z" fill="white"/>
<path d="M3.46875 94.6968L4.68281 95.9108L8.15156 92.4421L6.9375 91.228L3.46875 94.6968Z" fill="#574137"/>
<path d="M68.3345 89.147C68.6814 88.1064 68.8548 87.2392 69.0282 86.1986C69.2017 85.6782 69.3751 85.1579 69.5485 84.4642C71.2829 77.0064 43.0126 72.1501 43.0126 72.1501L40.9313 71.6298C36.422 70.5892 26.536 69.3751 19.2517 77.7001C14.222 83.597 19.4251 89.4939 24.1079 89.8407C36.7688 91.0548 46.1345 94.1767 53.2454 97.1251C59.4892 100.074 65.7329 96.7782 68.3345 89.147Z" fill="#FFF2E3"/>
<path d="M40.7578 74.4046C36.2484 72.8437 28.964 68.8546 19.5984 77.1796C28.2703 66.5999 42.3187 71.9765 42.839 72.1499C56.0203 73.8843 64.6921 68.6812 64.6921 68.6812C62.0906 75.2718 47.3484 76.6593 40.7578 74.4046Z" fill="#E6B796"/>
<path d="M61.2233 96.4312C85.3311 96.4312 70.7624 92.0952 100.767 91.9218C103.369 91.9218 105.45 89.3202 106.664 86.8921C105.797 91.5749 103.195 94.1765 99.8999 94.1765C69.7218 94.3499 84.2905 98.8593 60.1827 98.8593C50.6437 98.8593 41.6249 94.003 33.9937 91.5749C33.8202 91.4015 52.2046 96.4312 61.2233 96.4312Z" fill="#E6B796"/>
</svg>
